<svg width="8" height="8" viewBox="0 0 8 8" fill="none" xmlns="http://www.w3.org/2000/svg">
<path d="M8 4C8 5.06087 7.57857 6.07828 6.82843 6.82843C6.07828 7.57857 5.06087 8 4 8C3.47471 8 2.95457 7.89654 2.46927 7.69552C1.98396 7.4945 1.54301 7.19986 1.17157 6.82843C0.421427 6.07828 0 5.06087 0 4C0 2.93913 0.421427 1.92172 1.17157 1.17157C1.92172 0.421427 2.93913 0 4 0C4.52529 0 5.04543 0.103463 5.53073 0.304482C6.01604 0.505501 6.45699 0.800139 6.82843 1.17157C7.19986 1.54301 7.4945 1.98396 7.69552 2.46927C7.89654 2.95457 8 3.47471 8 4ZM7.2 4C7.2 3.15131 6.86286 2.33737 6.26274 1.73726C5.66263 1.13714 4.84869 0.8 4 0.8C3.15131 0.8 2.33737 1.13714 1.73726 1.73726C1.13714 2.33737 0.8 3.15131 0.8 4C0.8 4.84869 1.13714 5.66263 1.73726 6.26274C2.33737 6.86286 3.15131 7.2 4 7.2C4.84869 7.2 5.66263 6.86286 6.26274 6.26274C6.86286 5.66263 7.2 4.84869 7.2 4ZM2.64 5.84L4.48 4L2.64 2.16L3.2 1.6L5.6 4L3.2 6.4L2.64 5.84Z" fill="#2B2C63"/>
</svg>
