<svg width="12" height="12" viewBox="0 0 12 12" fill="none" xmlns="http://www.w3.org/2000/svg">
<path d="M5.29696 11.763L0.21189 6.54813C0.134843 6.46912 0.0801402 6.38353 0.0477807 6.29134C0.0154212 6.19916 -0.000501604 6.1004 1.20386e-05 5.99505C1.20386e-05 5.8897 0.0161919 5.79093 0.0485515 5.69875C0.080911 5.60657 0.135357 5.52097 0.21189 5.44196L5.29696 0.227132C5.43821 0.0822753 5.6149 0.00668685 5.82703 0.000365847C6.03917 -0.00595516 6.22203 0.0696333 6.37561 0.227132C6.5297 0.371988 6.61008 0.55319 6.61676 0.770738C6.62344 0.988286 6.54947 1.17581 6.39487 1.33331L2.61959 5.20492H11.2295C11.4478 5.20492 11.6309 5.28077 11.7789 5.43248C11.9268 5.58418 12.0005 5.7717 12 5.99505C12 6.21892 11.9263 6.4067 11.7789 6.55841C11.6315 6.71011 11.4483 6.7857 11.2295 6.78517H2.61959L6.39487 10.6568C6.53612 10.8016 6.61008 10.986 6.61676 11.2099C6.62344 11.4337 6.54947 11.6181 6.39487 11.763C6.25362 11.921 6.07384 12 5.85554 12C5.63724 12 5.45105 11.921 5.29696 11.763Z" fill="black"/>
</svg>
