<svg width="20" height="18" viewBox="0 0 20 18" fill="none" xmlns="http://www.w3.org/2000/svg">
<path d="M18.6044 1.98843L17.3356 1.45818V10.0084L19.6365 4.45976C20.0247 3.49395 19.5797 2.38611 18.6044 1.98843ZM0.140469 5.49185L4.83694 16.8069C4.97524 17.1512 5.21114 17.4475 5.51563 17.6595C5.82011 17.8715 6.17992 17.9898 6.55078 18C6.79697 18 7.05262 17.9527 7.29881 17.8485L14.2772 14.9605C14.9874 14.667 15.423 13.9663 15.4419 13.2656C15.4514 13.0195 15.404 12.7449 15.3188 12.4987L10.5844 1.18359C10.4506 0.837052 10.2156 0.538827 9.9099 0.327727C9.60422 0.116628 9.24208 0.00243131 8.87061 0C8.62442 0 8.37824 0.0568123 8.14152 0.142031L1.17256 3.02998C0.709313 3.21968 0.340364 3.58558 0.146825 4.04724C-0.0467147 4.50889 -0.0490009 5.02851 0.140469 5.49185ZM15.4324 1.89374C15.4324 1.39149 15.2329 0.909809 14.8778 0.554664C14.5226 0.199518 14.0409 0 13.5387 0H12.1657L15.4324 7.8969" fill="#272865"/>
</svg>
