<svg width="14" height="18" viewBox="0 0 14 18" fill="none" xmlns="http://www.w3.org/2000/svg">
<path d="M1.53381 18C1.0792 17.8858 0.69113 17.6636 0.396407 17.2841C0.14533 16.9609 0.00531538 16.5982 0.000561787 16.1849C-0.0214776 14.3062 0.605133 12.6756 1.84841 11.2957C3.04459 9.96812 4.53593 9.20925 6.29865 9.02875C8.07476 8.8465 9.69315 9.29972 11.1313 10.3722C12.6546 11.5083 13.5643 13.0427 13.907 14.9267C13.9921 15.3944 14.0215 15.8691 13.9839 16.3426C13.9273 17.0588 13.3534 17.7356 12.6564 17.9389C12.5902 17.9582 12.5246 17.9798 12.4589 18C8.81719 18 5.1755 18 1.53381 18Z" fill="#272865"/>
<path d="M6.99558 8.07005C4.79942 8.06961 3.01033 6.25368 3.01466 4.0302C3.01898 1.80364 4.80892 -0.00307022 7.00638 3.91719e-06C9.19304 0.00307805 10.9761 1.81287 10.9787 4.03239C10.9813 6.25675 9.19174 8.07049 6.99558 8.07005Z" fill="#272865"/>
</svg>
