<svg width="19" height="18" viewBox="0 0 19 18" fill="none" xmlns="http://www.w3.org/2000/svg">
<path d="M6.57 18L6.21 15.12C6.015 15.045 5.8311 14.955 5.6583 14.85C5.4855 14.745 5.3169 14.6325 5.1525 14.5125L2.475 15.6375L0 11.3625L2.3175 9.6075C2.3025 9.5025 2.295 9.4011 2.295 9.3033V8.6967C2.295 8.5989 2.3025 8.4975 2.3175 8.3925L0 6.6375L2.475 2.3625L5.1525 3.4875C5.3175 3.3675 5.49 3.255 5.67 3.15C5.85 3.045 6.03 2.955 6.21 2.88L6.57 0H11.52L11.88 2.88C12.075 2.955 12.2589 3.045 12.4317 3.15C12.6045 3.255 12.7731 3.3675 12.9375 3.4875L15.615 2.3625L18.09 6.6375L15.7725 8.3925C15.7875 8.4975 15.795 8.5989 15.795 8.6967V9.3033C15.795 9.4011 15.78 9.5025 15.75 9.6075L18.0675 11.3625L15.5925 15.6375L12.9375 14.5125C12.7725 14.6325 12.6 14.745 12.42 14.85C12.24 14.955 12.06 15.045 11.88 15.12L11.52 18H6.57ZM9.09 12.15C9.96 12.15 10.7025 11.8425 11.3175 11.2275C11.9325 10.6125 12.24 9.87 12.24 9C12.24 8.13 11.9325 7.3875 11.3175 6.7725C10.7025 6.1575 9.96 5.85 9.09 5.85C8.205 5.85 7.4586 6.1575 6.8508 6.7725C6.243 7.3875 5.9394 8.13 5.94 9C5.94 9.87 6.2436 10.6125 6.8508 11.2275C7.458 11.8425 8.2044 12.15 9.09 12.15Z" fill="#272865"/>
</svg>
