<svg width="11" height="8" viewBox="0 0 11 8" fill="none" xmlns="http://www.w3.org/2000/svg">
<path d="M0 0H11V8H0V0ZM5.5 2C5.98623 2 6.45255 2.21071 6.79636 2.58579C7.14018 2.96086 7.33333 3.46957 7.33333 4C7.33333 4.53043 7.14018 5.03914 6.79636 5.41421C6.45255 5.78929 5.98623 6 5.5 6C5.01377 6 4.54745 5.78929 4.20364 5.41421C3.85982 5.03914 3.66667 4.53043 3.66667 4C3.66667 3.46957 3.85982 2.96086 4.20364 2.58579C4.54745 2.21071 5.01377 2 5.5 2ZM2.44444 1.33333C2.44444 1.68696 2.31568 2.02609 2.08646 2.27614C1.85725 2.52619 1.54638 2.66667 1.22222 2.66667V5.33333C1.54638 5.33333 1.85725 5.47381 2.08646 5.72386C2.31568 5.97391 2.44444 6.31305 2.44444 6.66667H8.55556C8.55556 6.31305 8.68433 5.97391 8.91354 5.72386C9.14275 5.47381 9.45362 5.33333 9.77778 5.33333V2.66667C9.45362 2.66667 9.14275 2.52619 8.91354 2.27614C8.68433 2.02609 8.55556 1.68696 8.55556 1.33333H2.44444Z" fill="white"/>
</svg>
