<svg width="8" height="8" viewBox="0 0 8 8" fill="none" xmlns="http://www.w3.org/2000/svg">
<path d="M7.25779 3.66881V2.17734C7.25779 1.98485 7.18132 1.80024 7.04521 1.66413C6.9091 1.52802 6.7245 1.45156 6.53201 1.45156H5.08045V0.725779C5.08045 0.53329 5.00399 0.348686 4.86788 0.212576C4.73177 0.0764658 4.54716 0 4.35467 0H2.90312C2.71063 0 2.52602 0.0764658 2.38991 0.212576C2.2538 0.348686 2.17734 0.53329 2.17734 0.725779V1.45156H0.725779C0.53329 1.45156 0.348686 1.52802 0.212576 1.66413C0.0764658 1.80024 0 1.98485 0 2.17734V6.16912C0 6.36161 0.0764658 6.54621 0.212576 6.68232C0.348686 6.81843 0.53329 6.8949 0.725779 6.8949H3.36036C3.55982 7.18621 3.81782 7.43275 4.11789 7.61878C4.41797 7.80481 4.75353 7.92624 5.10316 7.97533C5.45279 8.02442 5.80881 8.00008 6.14851 7.90388C6.48821 7.80768 6.80412 7.64172 7.0761 7.4166C7.34807 7.19147 7.57013 6.91212 7.7281 6.59638C7.88607 6.28063 7.97649 5.93542 7.99359 5.58278C8.01069 5.23014 7.95408 4.8778 7.82739 4.54825C7.7007 4.21871 7.50671 3.91919 7.25779 3.66881ZM2.90312 0.725779H4.35467V1.45156H2.90312M6.53201 6.8949C6.21794 7.13045 5.83593 7.25779 5.44334 7.25779C5.05075 7.25779 4.66875 7.13045 4.35467 6.8949C4.05002 6.66641 3.82498 6.34785 3.71143 5.98435C3.59788 5.62085 3.60158 5.23084 3.72201 4.86956C3.84243 4.50829 4.07348 4.19406 4.38242 3.97139C4.69135 3.74872 5.06252 3.62889 5.44334 3.62889C5.82416 3.62889 6.19533 3.74872 6.50427 3.97139C6.81321 4.19406 7.04425 4.50829 7.16468 4.86956C7.2851 5.23084 7.2888 5.62085 7.17526 5.98435C7.06171 6.34785 6.83667 6.66641 6.53201 6.8949ZM5.08045 4.35467H5.62479V5.37802L6.51024 5.8897L6.23807 6.36145L5.08045 5.69374V4.35467Z" fill="white"/>
</svg>
