<svg width="9" height="8" viewBox="0 0 9 8" fill="none" xmlns="http://www.w3.org/2000/svg">
<path d="M3.55556 5.77778V5.33333H0.444444V7.11111C0.444444 7.60444 0.84 8 1.33333 8H7.55556C8.04889 8 8.44444 7.60444 8.44444 7.11111V5.33333H5.33333V5.77778H3.55556ZM8 1.77778H6.22222V0.888889L5.33333 0H3.55556L2.66667 0.888889V1.77778H0.888889C0.4 1.77778 0 2.17778 0 2.66667V4C0 4.49333 0.395556 4.88889 0.888889 4.88889H3.55556V4H5.33333V4.88889H8C8.48889 4.88889 8.88889 4.48889 8.88889 4V2.66667C8.88889 2.17778 8.48889 1.77778 8 1.77778ZM5.33333 1.77778H3.55556V0.888889H5.33333V1.77778Z" fill="white"/>
</svg>
