<svg width="7" height="8" viewBox="0 0 7 8" fill="none" xmlns="http://www.w3.org/2000/svg">
<path d="M3.26115 4.07643C3.48535 4.07643 3.67735 3.99654 3.83715 3.83674C3.99694 3.67694 4.0767 3.48508 4.07643 3.26115C4.07643 3.03694 3.99654 2.84494 3.83674 2.68515C3.67694 2.52535 3.48508 2.44559 3.26115 2.44586C3.03694 2.44586 2.84494 2.52576 2.68515 2.68555C2.52535 2.84535 2.44559 3.03721 2.44586 3.26115C2.44586 3.48535 2.52576 3.67735 2.68555 3.83715C2.84535 3.99694 3.03721 4.0767 3.26115 4.07643ZM3.26115 8C3.20679 8 3.15244 7.98981 3.09809 7.96943C3.04374 7.94904 2.99618 7.92187 2.95541 7.8879C1.96348 7.01147 1.22293 6.19781 0.733758 5.44693C0.244586 4.69605 0 3.99463 0 3.34268C0 2.32357 0.327881 1.51168 0.983643 0.907006C1.63941 0.302335 2.39857 0 3.26115 0C4.12399 0 4.8833 0.302335 5.53906 0.907006C6.19482 1.51168 6.52256 2.32357 6.52229 3.34268C6.52229 3.9949 6.27771 4.69646 5.78854 5.44734C5.29936 6.19822 4.55881 7.01174 3.56688 7.8879C3.52611 7.92187 3.47856 7.94904 3.4242 7.96943C3.36985 7.98981 3.3155 8 3.26115 8Z" fill="white"/>
</svg>
