<svg width="15" height="15" viewBox="0 0 15 15" fill="none" xmlns="http://www.w3.org/2000/svg">
<path d="M7.5 14C11.0899 14 14 11.0899 14 7.5C14 3.91015 11.0899 1 7.5 1C3.91015 1 1 3.91015 1 7.5C1 11.0899 3.91015 14 7.5 14Z" stroke="black" stroke-linecap="round" stroke-linejoin="round"/>
<path d="M6 6C6 5.70333 6.08797 5.41332 6.2528 5.16665C6.41762 4.91997 6.65189 4.72771 6.92597 4.61418C7.20006 4.50065 7.50166 4.47094 7.79264 4.52882C8.08361 4.5867 8.35088 4.72956 8.56066 4.93934C8.77044 5.14912 8.9133 5.41639 8.97118 5.70737C9.02906 5.99834 8.99935 6.29994 8.88582 6.57403C8.77229 6.84812 8.58003 7.08238 8.33336 7.24721C8.08668 7.41203 7.79667 7.5 7.5 7.5V8.5" stroke="black" stroke-linecap="round" stroke-linejoin="round"/>
<path d="M7.5 10C7.35166 10 7.20666 10.044 7.08332 10.1264C6.95999 10.2088 6.86386 10.3259 6.80709 10.463C6.75032 10.6 6.73547 10.7508 6.76441 10.8963C6.79335 11.0418 6.86478 11.1754 6.96967 11.2803C7.07456 11.3852 7.2082 11.4567 7.35368 11.4856C7.49917 11.5145 7.64997 11.4997 7.78701 11.4429C7.92406 11.3861 8.04119 11.29 8.1236 11.1667C8.20601 11.0433 8.25 10.8983 8.25 10.75C8.24741 10.5519 8.16756 10.3626 8.02747 10.2225C7.88737 10.0824 7.69811 10.0026 7.5 10Z" fill="black"/>
</svg>
