<svg width="14" height="7" viewBox="0 0 14 7" fill="none" xmlns="http://www.w3.org/2000/svg">
<path d="M11.5862 3.5C11.5862 3.68565 11.5099 3.8637 11.3741 3.99497C11.2383 4.12625 11.0541 4.2 10.8621 4.2H3.13793C2.94588 4.2 2.76169 4.12625 2.62589 3.99497C2.49009 3.8637 2.41379 3.68565 2.41379 3.5C2.41379 3.31435 2.49009 3.1363 2.62589 3.00503C2.76169 2.87375 2.94588 2.8 3.13793 2.8H10.8621C11.0541 2.8 11.2383 2.87375 11.3741 3.00503C11.5099 3.1363 11.5862 3.31435 11.5862 3.5ZM13.2759 0H0.724138C0.532085 0 0.347897 0.0737497 0.212095 0.205025C0.0762929 0.336301 0 0.514348 0 0.7C0 0.885652 0.0762929 1.0637 0.212095 1.19497C0.347897 1.32625 0.532085 1.4 0.724138 1.4H13.2759C13.4679 1.4 13.6521 1.32625 13.7879 1.19497C13.9237 1.0637 14 0.885652 14 0.7C14 0.514348 13.9237 0.336301 13.7879 0.205025C13.6521 0.0737497 13.4679 0 13.2759 0ZM8.44828 5.6H5.55172C5.35967 5.6 5.17548 5.67375 5.03968 5.80503C4.90388 5.9363 4.82759 6.11435 4.82759 6.3C4.82759 6.48565 4.90388 6.6637 5.03968 6.79497C5.17548 6.92625 5.35967 7 5.55172 7H8.44828C8.64033 7 8.82452 6.92625 8.96032 6.79497C9.09612 6.6637 9.17241 6.48565 9.17241 6.3C9.17241 6.11435 9.09612 5.9363 8.96032 5.80503C8.82452 5.67375 8.64033 5.6 8.44828 5.6Z" fill="#2B2C63"/>
</svg>
