<svg width="15" height="16" viewBox="0 0 15 16" fill="none" xmlns="http://www.w3.org/2000/svg">
<path d="M13.7143 12.9524V13.7143H0V12.9524L1.52381 11.4286V6.85714C1.52381 4.49524 3.07048 2.41524 5.33333 1.74476V1.52381C5.33333 1.11967 5.49388 0.732083 5.77965 0.446313C6.06542 0.160544 6.453 0 6.85714 0C7.26128 0 7.64887 0.160544 7.93464 0.446313C8.22041 0.732083 8.38095 1.11967 8.38095 1.52381V1.74476C10.6438 2.41524 12.1905 4.49524 12.1905 6.85714V11.4286L13.7143 12.9524ZM8.38095 14.4762C8.38095 14.8803 8.22041 15.2679 7.93464 15.5537C7.64887 15.8395 7.26128 16 6.85714 16C6.453 16 6.06542 15.8395 5.77965 15.5537C5.49388 15.2679 5.33333 14.8803 5.33333 14.4762" fill="#262865"/>
<circle cx="12" cy="4" r="2.5" fill="#E40000" stroke="white"/>
</svg>
