<svg width="17" height="20" viewBox="0 0 17 20" fill="none" xmlns="http://www.w3.org/2000/svg">
<path d="M16.4933 15.5861C16.1909 16.2848 15.8329 16.928 15.4181 17.5193C14.8526 18.3255 14.3897 18.8835 14.0329 19.1934C13.4798 19.702 12.8873 19.9625 12.2527 19.9773C11.7972 19.9773 11.2478 19.8477 10.6083 19.5847C9.96674 19.323 9.37713 19.1934 8.83801 19.1934C8.27259 19.1934 7.66619 19.323 7.01757 19.5847C6.36796 19.8477 5.84464 19.9847 5.44453 19.9983C4.83603 20.0242 4.2295 19.7563 3.62409 19.1934C3.23768 18.8563 2.75436 18.2786 2.17537 17.4601C1.55415 16.586 1.04343 15.5725 0.643314 14.417C0.214808 13.1689 0 11.9603 0 10.7902C0 9.44984 0.289621 8.29383 0.869727 7.32509C1.32564 6.54696 1.93216 5.93316 2.69128 5.48255C3.45039 5.03195 4.27061 4.80233 5.15392 4.78763C5.63724 4.78763 6.27105 4.93714 7.05868 5.23096C7.84409 5.52576 8.34839 5.67526 8.5695 5.67526C8.7348 5.67526 9.29503 5.50045 10.2448 5.15195C11.1429 4.82874 11.9009 4.69492 12.5218 4.74764C14.2045 4.88343 15.4687 5.54675 16.3094 6.74177C14.8045 7.6536 14.0601 8.93072 14.0749 10.5691C14.0885 11.8452 14.5514 12.9071 15.4613 13.7503C15.8736 14.1417 16.3341 14.4441 16.8464 14.6589C16.7353 14.9812 16.618 15.2898 16.4933 15.5861ZM12.6342 0.400114C12.6342 1.40034 12.2688 2.33425 11.5404 3.19867C10.6614 4.22629 9.59823 4.8201 8.4453 4.7264C8.43061 4.60641 8.4221 4.48011 8.4221 4.3474C8.4221 3.38718 8.84011 2.35956 9.58243 1.51934C9.95304 1.09392 10.4244 0.74019 10.996 0.458013C11.5663 0.180046 12.1058 0.0263242 12.6132 0C12.628 0.133715 12.6342 0.267438 12.6342 0.400101V0.400114Z" fill="white"/>
</svg>
