<svg width="13" height="11" viewBox="0 0 13 11" fill="none" xmlns="http://www.w3.org/2000/svg">
<path d="M0 0.706177H13V10.6232H0V0.706177ZM6.5 3.18544C7.07464 3.18544 7.62574 3.44665 8.03206 3.9116C8.43839 4.37655 8.66667 5.00717 8.66667 5.66471C8.66667 6.32225 8.43839 6.95286 8.03206 7.41781C7.62574 7.88277 7.07464 8.14397 6.5 8.14397C5.92536 8.14397 5.37426 7.88277 4.96794 7.41781C4.56161 6.95286 4.33333 6.32225 4.33333 5.66471C4.33333 5.00717 4.56161 4.37655 4.96794 3.9116C5.37426 3.44665 5.92536 3.18544 6.5 3.18544ZM2.88889 2.35902C2.88889 2.79738 2.73671 3.21779 2.46582 3.52776C2.19494 3.83773 1.82753 4.01186 1.44444 4.01186V7.31755C1.82753 7.31755 2.19494 7.49169 2.46582 7.80166C2.73671 8.11163 2.88889 8.53203 2.88889 8.9704H10.1111C10.1111 8.53203 10.2633 8.11163 10.5342 7.80166C10.8051 7.49169 11.1725 7.31755 11.5556 7.31755V4.01186C11.1725 4.01186 10.8051 3.83773 10.5342 3.52776C10.2633 3.21779 10.1111 2.79738 10.1111 2.35902H2.88889Z" fill="#262865"/>
</svg>
