<svg width="10" height="11" viewBox="0 0 10 11" fill="none" xmlns="http://www.w3.org/2000/svg">
<path d="M9.07224 5.25416V3.40527C9.07224 3.16666 8.97665 2.93782 8.80652 2.76909C8.63638 2.60036 8.40562 2.50558 8.16501 2.50558H6.35056V1.60588C6.35056 1.36726 6.25498 1.13842 6.08485 0.969693C5.91471 0.800966 5.68395 0.706177 5.44334 0.706177H3.62889C3.38828 0.706177 3.15753 0.800966 2.98739 0.969693C2.81725 1.13842 2.72167 1.36726 2.72167 1.60588V2.50558H0.907224C0.666613 2.50558 0.435857 2.60036 0.26572 2.76909C0.0955822 2.93782 0 3.16666 0 3.40527V8.35362C0 8.59224 0.0955822 8.82108 0.26572 8.9898C0.435857 9.15853 0.666613 9.25332 0.907224 9.25332H4.20045C4.44978 9.61444 4.77228 9.92006 5.14737 10.1507C5.52246 10.3813 5.94191 10.5318 6.37894 10.5927C6.81598 10.6535 7.26101 10.6233 7.68564 10.5041C8.11026 10.3848 8.50515 10.1791 8.84512 9.90003C9.18509 9.62096 9.46266 9.27467 9.66013 8.88326C9.85759 8.49186 9.97062 8.06392 9.99199 7.62677C10.0134 7.18962 9.9426 6.75286 9.78424 6.34434C9.62588 5.93582 9.38339 5.56453 9.07224 5.25416ZM3.62889 1.60588H5.44334V2.50558H3.62889M8.16501 9.25332C7.77242 9.54532 7.29492 9.70317 6.80418 9.70317C6.31344 9.70317 5.83593 9.54532 5.44334 9.25332C5.06252 8.97007 4.78122 8.57518 4.63928 8.12457C4.49735 7.67397 4.50197 7.1905 4.65251 6.74265C4.80304 6.29479 5.09185 5.90526 5.47802 5.62924C5.86419 5.35321 6.32815 5.20467 6.80418 5.20467C7.2802 5.20467 7.74416 5.35321 8.13033 5.62924C8.51651 5.90526 8.80531 6.29479 8.95585 6.74265C9.10638 7.1905 9.11101 7.67397 8.96907 8.12457C8.82713 8.57518 8.54583 8.97007 8.16501 9.25332ZM6.35056 6.10437H7.03098V7.37295L8.1378 8.00724L7.79759 8.59204L6.35056 7.76432V6.10437Z" fill="#262865"/>
</svg>
