<svg width="26" height="25" viewBox="0 0 26 25" fill="none" xmlns="http://www.w3.org/2000/svg">
<path d="M23.8215 0H2.51248C2.02303 0 1.55362 0.194435 1.20752 0.540531C0.861427 0.886626 0.666992 1.35603 0.666992 1.84549V23.1545C0.666992 23.644 0.861427 24.1134 1.20752 24.4595C1.55362 24.8056 2.02303 25 2.51248 25H23.8215C24.311 25 24.7804 24.8056 25.1265 24.4595C25.4726 24.1134 25.667 23.644 25.667 23.1545V1.84549C25.667 1.35603 25.4726 0.886626 25.1265 0.540531C24.7804 0.194435 24.311 0 23.8215 0ZM8.11838 21.2969H4.3597V9.35764H8.11838V21.2969ZM6.23644 7.70312C5.81008 7.70072 5.39399 7.57208 5.04067 7.33342C4.68736 7.09477 4.41266 6.7568 4.25124 6.36218C4.08982 5.96755 4.04892 5.53395 4.13369 5.1161C4.21847 4.69825 4.42512 4.31487 4.72757 4.01436C5.03002 3.71384 5.41472 3.50965 5.8331 3.42756C6.25149 3.34547 6.68482 3.38916 7.0784 3.55311C7.47198 3.71706 7.80818 3.99392 8.04456 4.34876C8.28094 4.7036 8.40691 5.12051 8.40658 5.54688C8.4106 5.83233 8.35711 6.11567 8.2493 6.38C8.14148 6.64434 7.98156 6.88427 7.77904 7.08549C7.57653 7.2867 7.33558 7.44509 7.07056 7.5512C6.80553 7.65731 6.52186 7.70898 6.23644 7.70312ZM21.9725 21.3073H18.2156V14.7847C18.2156 12.8611 17.3979 12.2674 16.3423 12.2674C15.2278 12.2674 14.134 13.1076 14.134 14.8333V21.3073H10.3753V9.36632H13.9899V11.0208H14.0385C14.4014 10.2865 15.6722 9.03125 17.6114 9.03125C19.7087 9.03125 21.9743 10.276 21.9743 13.9219L21.9725 21.3073Z" fill="#0A66C2"/>
</svg>
