<svg width="10" height="12" viewBox="0 0 10 12" fill="none" xmlns="http://www.w3.org/2000/svg">
<path d="M4.89172 6.11465C5.22803 6.11465 5.51603 5.9948 5.75572 5.75511C5.99541 5.51541 6.11506 5.22762 6.11465 4.89172C6.11465 4.55541 5.9948 4.26741 5.75511 4.02772C5.51541 3.78803 5.22762 3.66838 4.89172 3.66879C4.55541 3.66879 4.26741 3.78864 4.02772 4.02833C3.78803 4.26803 3.66838 4.55582 3.66879 4.89172C3.66879 5.22803 3.78864 5.51603 4.02833 5.75572C4.26803 5.99541 4.55582 6.11506 4.89172 6.11465ZM4.89172 12C4.81019 12 4.72866 11.9847 4.64713 11.9541C4.56561 11.9236 4.49427 11.8828 4.43312 11.8318C2.94522 10.5172 1.8344 9.29671 1.10064 8.17039C0.366879 7.04408 0 5.99195 0 5.01401C0 3.48535 0.491822 2.26752 1.47547 1.36051C2.45911 0.453503 3.59786 0 4.89172 0C6.18599 0 7.32494 0.453503 8.30859 1.36051C9.29223 2.26752 9.78385 3.48535 9.78344 5.01401C9.78344 5.99236 9.41656 7.04469 8.6828 8.17101C7.94905 9.29733 6.83822 10.5176 5.35032 11.8318C5.28917 11.8828 5.21783 11.9236 5.13631 11.9541C5.05478 11.9847 4.97325 12 4.89172 12Z" fill="#34A853"/>
</svg>
