<svg width="12" height="12" viewBox="0 0 12 12" fill="none" xmlns="http://www.w3.org/2000/svg">
<path d="M11.5751 4.11059C12.2928 3.39285 11.9655 2.55453 11.5751 2.14685L9.85252 0.424273C9.12903 -0.293468 8.29646 0.033822 7.88878 0.424273L6.91265 1.40614H5.42549C4.33453 1.40614 3.70291 1.98034 3.38137 2.64066L0.83195 5.19007V7.48684L0.424273 7.88878C-0.293468 8.61226 0.033822 9.44484 0.424273 9.85252L2.14685 11.5751C2.45692 11.8852 2.78995 12 3.10575 12C3.51343 12 3.88666 11.799 4.11059 11.5751L5.66091 10.019H7.72226C8.69839 10.019 9.1922 9.41039 9.3702 8.81323C10.019 8.64097 10.375 8.14717 10.5186 7.66484C11.4086 7.43517 11.7416 6.5911 11.7416 5.99969V4.27711H11.4028L11.5751 4.11059ZM10.5932 5.99969C10.5932 6.25807 10.4841 6.57388 10.019 6.57388H9.44484V7.14807C9.44484 7.40646 9.33574 7.72226 8.87065 7.72226H8.29646V8.29646C8.29646 8.55484 8.18736 8.87065 7.72226 8.87065H5.19007L3.30672 10.754C3.12872 10.9205 3.02537 10.8229 2.96221 10.7597L1.24537 9.04865C1.07885 8.87065 1.17647 8.76729 1.23963 8.70413L1.98034 7.95768V5.66091L3.12872 4.51253V5.42549C3.12872 6.12027 3.58808 7.14807 4.8513 7.14807C6.11452 7.14807 6.57388 6.12027 6.57388 5.42549H10.5932V5.99969ZM10.7597 3.29524L9.78362 4.27711H5.42549V5.42549C5.42549 5.68388 5.3164 5.99969 4.8513 5.99969C4.3862 5.99969 4.27711 5.68388 4.27711 5.42549V3.70291C4.27711 3.43879 4.37472 2.55453 5.42549 2.55453H7.38349L8.69265 1.24537C8.87065 1.07885 8.974 1.17647 9.03717 1.23963L10.754 2.95072C10.9205 3.12872 10.8229 3.23208 10.7597 3.29524Z" fill="black"/>
</svg>
