<svg width="10" height="12" viewBox="0 0 10 12" fill="none" xmlns="http://www.w3.org/2000/svg">
<path d="M4.8 7.2C5.13 7.2 5.4126 7.0824 5.6478 6.8472C5.883 6.612 6.0004 6.3296 6 6C6 5.67 5.8824 5.3874 5.6472 5.1522C5.412 4.917 5.1296 4.7996 4.8 4.8C4.47 4.8 4.1874 4.9176 3.9522 5.1528C3.717 5.388 3.5996 5.6704 3.6 6C3.6 6.33 3.7176 6.6126 3.9528 6.8478C4.188 7.083 4.4704 7.2004 4.8 7.2ZM4.8 10.74C5.21 10.63 5.6176 10.4276 6.0228 10.1328C6.428 9.838 6.7804 9.5104 7.08 9.15L6 8.07C5.82 8.18 5.6274 8.2626 5.4222 8.3178C5.217 8.373 5.0096 8.4004 4.8 8.4C4.14 8.4 3.575 8.165 3.105 7.695C2.635 7.225 2.4 6.66 2.4 6C2.4 5.34 2.635 4.775 3.105 4.305C3.575 3.835 4.14 3.6 4.8 3.6C5.46 3.6 6.025 3.835 6.495 4.305C6.965 4.775 7.2 5.34 7.2 6C7.2 6.22 7.1724 6.4326 7.1172 6.6378C7.062 6.843 6.9796 7.0404 6.87 7.23L7.77 8.13C7.97 7.72 8.125 7.29 8.235 6.84C8.345 6.39 8.4 5.93 8.4 5.46V2.625L4.8 1.275L1.2 2.625V5.46C1.2 6.67 1.54 7.77 2.22 8.76C2.9 9.75 3.76 10.41 4.8 10.74ZM4.8 12C3.41 11.65 2.2624 10.8524 1.3572 9.6072C0.452 8.362 -0.000399735 6.9796 2.65018e-07 5.46V1.8L4.8 0L9.6 1.8V5.46C9.6 6.98 9.1474 8.3626 8.2422 9.6078C7.337 10.853 6.1896 11.6504 4.8 12Z" fill="black"/>
</svg>
