<svg width="7" height="12" viewBox="0 0 7 12" fill="none" xmlns="http://www.w3.org/2000/svg">
<path d="M1.36185 0.237466L6.69694 5.55673C6.76027 5.62005 6.80523 5.68865 6.83182 5.76253C6.85842 5.83641 6.87151 5.91557 6.87108 6C6.87108 6.08443 6.858 6.16359 6.83182 6.23747C6.80565 6.31135 6.76069 6.37995 6.69694 6.44327L1.36185 11.7784C1.21409 11.9261 1.0294 12 0.80776 12C0.586124 12 0.396151 11.9208 0.237839 11.7625C0.0795279 11.6042 0.000372461 11.4195 0.000372479 11.2084C0.000372497 10.9974 0.079528 10.8127 0.237839 10.6544L4.89219 6L0.23784 1.34565C0.0900831 1.19789 0.0162044 1.01573 0.0162044 0.799156C0.0162044 0.582586 0.0953599 0.395356 0.253671 0.237466C0.411983 0.0791554 0.596679 -5.48527e-07 0.807761 -5.30073e-07C1.01884 -5.1162e-07 1.20354 0.0791554 1.36185 0.237466Z" fill="black"/>
</svg>
