<svg width="10" height="10" viewBox="0 0 10 10" fill="none" xmlns="http://www.w3.org/2000/svg">
<path d="M7.32838 6.44908H6.86528L6.70114 6.2908C7.06749 5.8652 7.33524 5.36388 7.48522 4.82272C7.6352 4.28156 7.66372 3.71394 7.56872 3.16048C7.29321 1.53083 5.93322 0.229463 4.29185 0.0301541C3.7148 -0.0428483 3.1287 0.0171237 2.57839 0.205481C2.02809 0.393838 1.52816 0.705588 1.11688 1.11688C0.705588 1.52816 0.393838 2.02809 0.205481 2.57839C0.0171237 3.1287 -0.0428483 3.7148 0.0301541 4.29185C0.229463 5.93322 1.53083 7.29321 3.16048 7.56872C3.71394 7.66372 4.28156 7.6352 4.82272 7.48522C5.36388 7.33524 5.8652 7.06749 6.2908 6.70114L6.44908 6.86528V7.32838L8.94044 9.81974C9.18078 10.0601 9.57354 10.0601 9.81388 9.81974C10.0542 9.5794 10.0542 9.18664 9.81388 8.9463L7.32838 6.44908ZM3.81116 6.44908C2.35152 6.44908 1.17325 5.27081 1.17325 3.81116C1.17325 2.35152 2.35152 1.17325 3.81116 1.17325C5.27081 1.17325 6.44908 2.35152 6.44908 3.81116C6.44908 5.27081 5.27081 6.44908 3.81116 6.44908Z" fill="#A6A6A6"/>
</svg>
