<svg width="16" height="16" viewBox="0 0 16 16" fill="none" xmlns="http://www.w3.org/2000/svg">
<path d="M8 8.88889C7.74815 8.88889 7.53689 8.80356 7.36622 8.63289C7.19555 8.46222 7.11052 8.25126 7.11111 8V0.888892C7.11111 0.63704 7.19644 0.425781 7.36711 0.255114C7.53778 0.0844474 7.74874 -0.000589517 8 3.07574e-06C8.25185 3.07574e-06 8.46311 0.0853365 8.63377 0.256003C8.80444 0.42667 8.88948 0.637632 8.88889 0.888892V8C8.88889 8.25185 8.80355 8.46311 8.63289 8.63378C8.46222 8.80445 8.25126 8.88948 8 8.88889ZM8 16C6.88889 16 5.848 15.7887 4.87733 15.3662C3.90667 14.9437 3.06222 14.3736 2.344 13.656C1.62578 12.9372 1.0557 12.0927 0.633778 11.1227C0.211852 10.1526 0.000592592 9.1117 0 8C0 6.97778 0.185185 6 0.555555 5.06667C0.925926 4.13333 1.45926 3.28889 2.15556 2.53334C2.31852 2.35556 2.52593 2.26667 2.77778 2.26667C3.02963 2.26667 3.24444 2.35556 3.42222 2.53334C3.58518 2.6963 3.65926 2.90015 3.64444 3.14489C3.62963 3.38963 3.54074 3.608 3.37778 3.8C2.85926 4.37778 2.46311 5.02608 2.18933 5.74489C1.91555 6.4637 1.77837 7.21541 1.77778 8C1.77778 9.73333 2.38163 11.2039 3.58933 12.4116C4.79704 13.6193 6.26726 14.2228 8 14.2222C9.73333 14.2222 11.2038 13.6184 12.4116 12.4107C13.6193 11.203 14.2228 9.73274 14.2222 8C14.2222 7.21482 14.0815 6.45541 13.8 5.72178C13.5185 4.98815 13.1185 4.33274 12.6 3.75556C12.437 3.57778 12.3517 3.37037 12.344 3.13334C12.3363 2.8963 12.4142 2.6963 12.5778 2.53334C12.7556 2.35556 12.9704 2.26667 13.2222 2.26667C13.4741 2.26667 13.6815 2.35556 13.8444 2.53334C14.5407 3.28889 15.0741 4.13333 15.4444 5.06667C15.8148 6 16 6.97778 16 8C16 9.11111 15.7887 10.152 15.3662 11.1227C14.9437 12.0933 14.3736 12.9378 13.656 13.656C12.9372 14.3742 12.0927 14.9446 11.1227 15.3671C10.1526 15.7896 9.1117 16.0006 8 16Z" fill="#2D9CCA"/>
</svg>
