<svg width="9" height="7" viewBox="0 0 9 7" fill="none" xmlns="http://www.w3.org/2000/svg">
<path d="M0 3.8337C0 3.70111 0.0568839 3.57395 0.158138 3.48019C0.259392 3.38643 0.396722 3.33376 0.539917 3.33376H3.59945C3.74264 3.33376 3.87997 3.38643 3.98122 3.48019C4.08248 3.57395 4.13936 3.70111 4.13936 3.8337C4.13936 3.96629 4.08248 4.09345 3.98122 4.18721C3.87997 4.28097 3.74264 4.33364 3.59945 4.33364H0.539917C0.396722 4.33364 0.259392 4.28097 0.158138 4.18721C0.0568839 4.09345 0 3.96629 0 3.8337ZM0.539917 1.66728H2.87956C3.02275 1.66728 3.16008 1.61461 3.26134 1.52085C3.36259 1.4271 3.41947 1.29994 3.41947 1.16734C3.41947 1.03475 3.36259 0.907587 3.26134 0.81383C3.16008 0.720073 3.02275 0.6674 2.87956 0.6674H0.539917C0.396722 0.6674 0.259392 0.720073 0.158138 0.81383C0.0568839 0.907587 0 1.03475 0 1.16734C0 1.29994 0.0568839 1.4271 0.158138 1.52085C0.259392 1.61461 0.396722 1.66728 0.539917 1.66728ZM6.479 6.00012H0.539917C0.396722 6.00012 0.259392 6.05279 0.158138 6.14655C0.0568839 6.2403 0 6.36747 0 6.50006C0 6.63265 0.0568839 6.75981 0.158138 6.85357C0.259392 6.94733 0.396722 7 0.539917 7H6.479C6.6222 7 6.75953 6.94733 6.86078 6.85357C6.96203 6.75981 7.01892 6.63265 7.01892 6.50006C7.01892 6.36747 6.96203 6.2403 6.86078 6.14655C6.75953 6.05279 6.6222 6.00012 6.479 6.00012ZM8.84069 1.81352L7.04097 0.147044C6.9908 0.100436 6.9312 0.0634551 6.86557 0.038222C6.79995 0.0129889 6.72958 0 6.65852 0C6.58746 0 6.5171 0.0129889 6.45147 0.038222C6.38585 0.0634551 6.32624 0.100436 6.27608 0.147044L4.47636 1.81352C4.37493 1.90744 4.31795 2.03482 4.31795 2.16764C4.31795 2.30047 4.37493 2.42785 4.47636 2.52177C4.57779 2.61569 4.71536 2.66845 4.8588 2.66845C5.00224 2.66845 5.13981 2.61569 5.24124 2.52177L6.11906 1.70895V4.50029C6.11906 4.63288 6.17594 4.76004 6.27719 4.8538C6.37845 4.94756 6.51578 5.00023 6.65897 5.00023C6.80217 5.00023 6.9395 4.94756 7.04075 4.8538C7.14201 4.76004 7.19889 4.63288 7.19889 4.50029V1.70895L8.0767 2.52219C8.12693 2.56869 8.18655 2.60558 8.25217 2.63075C8.31779 2.65592 8.38812 2.66887 8.45915 2.66887C8.53017 2.66887 8.6005 2.65592 8.66612 2.63075C8.73174 2.60558 8.79136 2.56869 8.84159 2.52219C8.89181 2.47568 8.93165 2.42047 8.95883 2.35971C8.98601 2.29895 9 2.23383 9 2.16806C9 2.10229 8.98601 2.03717 8.95883 1.97641C8.93165 1.91565 8.89181 1.86044 8.84159 1.81393L8.84069 1.81352Z" fill="#2B2C63"/>
</svg>
