<svg width="12" height="12" viewBox="0 0 12 12" fill="none" xmlns="http://www.w3.org/2000/svg">
<path d="M11.1431 6.85714C11.1439 6.42799 11.0374 6.00545 10.8331 5.62803C10.6289 5.25061 10.3334 4.93031 9.97363 4.69633C9.61387 4.46235 9.20128 4.32213 8.77345 4.28845C8.34563 4.25477 7.91617 4.3287 7.52424 4.5035C7.1323 4.6783 6.79035 4.94842 6.52954 5.28923C6.26874 5.63004 6.09738 6.0307 6.03108 6.4547C5.96479 6.8787 6.00566 7.31255 6.14998 7.71671C6.29431 8.12086 6.53748 8.48247 6.85735 8.76857V12L8.57164 11.1887L10.2859 12V8.76857C10.5554 8.5283 10.771 8.23383 10.9187 7.90443C11.0664 7.57503 11.1429 7.21814 11.1431 6.85714ZM9.42878 10.6457L8.57164 10.2399L7.7145 10.6457V9.27857C8.26842 9.47862 8.87486 9.47862 9.42878 9.27857V10.6457ZM8.57164 8.57143C8.23258 8.57143 7.90114 8.47089 7.61923 8.28252C7.33732 8.09415 7.11759 7.82641 6.98784 7.51317C6.85809 7.19992 6.82415 6.85524 6.89029 6.5227C6.95644 6.19016 7.11971 5.8847 7.35946 5.64496C7.5992 5.40521 7.90466 5.24194 8.2372 5.17579C8.56974 5.10965 8.91442 5.1436 9.22767 5.27335C9.54091 5.4031 9.80865 5.62282 9.99701 5.90473C10.1854 6.18665 10.2859 6.51809 10.2859 6.85714C10.2854 7.31162 10.1046 7.74733 9.78319 8.0687C9.46183 8.39007 9.02612 8.57086 8.57164 8.57143ZM2.14307 5.14285H5.14307V6H2.14307V5.14285ZM2.14307 2.57143H6.42878V3.42857H2.14307V2.57143Z" fill="black"/>
<path d="M0.857143 12C0.629884 11.9998 0.411998 11.9094 0.251302 11.7487C0.0906057 11.588 0.000226919 11.3701 0 11.1429V0.857143C0.000226919 0.629884 0.0906057 0.411998 0.251302 0.251302C0.411998 0.0906056 0.629884 0.000226919 0.857143 0H7.71429C7.94154 0.000226919 8.15943 0.0906056 8.32013 0.251302C8.48082 0.411998 8.5712 0.629884 8.57143 0.857143V2.57143H7.71429V0.857143H0.857143V11.1429H5.14286V12H0.857143Z" fill="black"/>
</svg>
