<svg width="13" height="12" viewBox="0 0 13 12" fill="none" xmlns="http://www.w3.org/2000/svg">
<path d="M11.8835 4.0163L8.33466 3.70834L6.94884 0.445441C6.69954 -0.14848 5.84899 -0.14848 5.59969 0.445441L4.21387 3.71567L0.672346 4.0163C0.0270986 4.06763 -0.236866 4.87418 0.254402 5.29946L2.94538 7.63115L2.13882 11.092C1.99217 11.7226 2.67408 12.2212 3.23134 11.8839L6.27427 10.0508L9.31719 11.8913C9.87445 12.2285 10.5564 11.7299 10.4097 11.0994L9.60316 7.63115L12.2941 5.29946C12.7854 4.87418 12.5288 4.06763 11.8835 4.0163ZM6.27427 8.67968L3.5173 10.3441L4.25054 7.20587L1.81619 5.09416L5.02777 4.81553L6.27427 1.86059L7.5281 4.82286L10.7397 5.10149L8.30533 7.21321L9.03857 10.3515L6.27427 8.67968Z" fill="black"/>
</svg>
