<svg width="33" height="25" viewBox="0 0 33 25" fill="none" xmlns="http://www.w3.org/2000/svg">
<path d="M10.7753 25C22.9047 25 29.539 15.3809 29.539 7.0393C29.539 6.76609 29.539 6.49411 29.5197 6.22336C30.8103 5.32977 31.9244 4.22334 32.8098 2.95587C31.6064 3.46661 30.3295 3.8014 29.0221 3.94904C30.3989 3.16023 31.4293 1.9194 31.9214 0.457571C30.6269 1.19292 29.2107 1.71111 27.7338 1.98978C26.7396 0.977765 25.4245 0.307634 23.9923 0.083088C22.56 -0.141458 21.0903 0.0921005 19.8107 0.747621C18.5311 1.40314 17.5128 2.44408 16.9135 3.70935C16.3142 4.97462 16.1673 6.39368 16.4954 7.74695C13.8735 7.62106 11.3086 6.96884 8.96716 5.83262C6.62568 4.6964 4.55998 3.10158 2.90414 1.15168C2.06082 2.54133 1.80254 4.18639 2.18186 5.75193C2.56118 7.31746 3.54959 8.68575 4.94585 9.57822C3.89632 9.54878 2.86965 9.27777 1.95271 8.78812V8.86811C1.95312 10.3255 2.48019 11.7379 3.4445 12.8658C4.40881 13.9936 5.751 14.7674 7.24342 15.056C6.27255 15.3095 5.25388 15.3466 4.26571 15.1643C4.68728 16.4185 5.50774 17.5152 6.6124 18.3012C7.71706 19.0872 9.05069 19.5231 10.4268 19.548C9.05954 20.5768 7.49375 21.3374 5.81906 21.7864C4.14436 22.2353 2.39362 22.3638 0.666992 22.1645C3.68284 24.017 7.19189 24.9996 10.7753 24.9951" fill="#1DA1F2"/>
</svg>
