<svg width="12" height="10" viewBox="0 0 12 10" fill="none" xmlns="http://www.w3.org/2000/svg">
<path d="M1.2 9.6C0.870001 9.6 0.587401 9.4824 0.352201 9.2472C0.117001 9.012 -0.000398981 8.7296 1.01868e-06 8.4V1.2C1.01868e-06 0.870001 0.117601 0.587401 0.352801 0.352201C0.588001 0.117001 0.870401 -0.000398981 1.2 1.01868e-06H10.8C11.13 1.01868e-06 11.4126 0.117601 11.6478 0.352801C11.883 0.588001 12.0004 0.870401 12 1.2V8.4C12 8.73 11.8824 9.0126 11.6472 9.2478C11.412 9.483 11.1296 9.6004 10.8 9.6H1.2ZM6 5.4L1.2 2.4V8.4H10.8V2.4L6 5.4ZM6 4.2L10.8 1.2H1.2L6 4.2ZM1.2 2.4V1.2V8.4V2.4Z" fill="black"/>
</svg>
